HIERARCHY
ROOT SimulationBone
{
	OFFSET 0.000000 0.000000 0.000000
	CHANNELS 6 Xposition Yposition Zposition Zrotation Yrotation Xrotation 
	JOINT Hips
	{
		OFFSET 0.000000 0.000000 0.000000
		CHANNELS 6 Xposition Yposition Zposition Zrotation Yrotation Xrotation 
		JOINT LeftUpLeg
		{
			OFFSET 0.103458 1.857831 10.548505
			CHANNELS 3 Zrotation Yrotation Xrotation
			JOINT LeftLeg
			{
				OFFSET 43.500000 -0.000031 0.000002
				CHANNELS 3 Zrotation Yrotation Xrotation
				JOINT LeftFoot
				{
					OFFSET 42.372200 0.000023 0.000003
					CHANNELS 3 Zrotation Yrotation Xrotation
					JOINT LeftToe
					{
						OFFSET 17.299997 -0.000001 -0.000010
						CHANNELS 3 Zrotation Yrotation Xrotation
						End Site
						{
							OFFSET 0.000000 0.000000 0.000000
						}
					}
				}
			}
		}
		JOINT RightUpLeg
		{
			OFFSET 0.103457 1.857828 -10.548510
			CHANNELS 3 Zrotation Yrotation Xrotation
			JOINT RightLeg
			{
				OFFSET 43.500046 -0.000015 0.000002
				CHANNELS 3 Zrotation Yrotation Xrotation
				JOINT RightFoot
				{
					OFFSET 42.372261 -0.000008 0.000023
					CHANNELS 3 Zrotation Yrotation Xrotation
					JOINT RightToe
					{
						OFFSET 17.299990 -0.000007 -0.000002
						CHANNELS 3 Zrotation Yrotation Xrotation
						End Site
						{
							OFFSET 0.000000 0.000000 0.000000
						}
					}
				}
			}
		}
		JOINT Spine
		{
			OFFSET 6.901967 -2.603726 -0.000001
			CHANNELS 3 Zrotation Yrotation Xrotation
			JOINT Spine1
			{
				OFFSET 12.588100 -0.000009 -0.000003
				CHANNELS 3 Zrotation Yrotation Xrotation
				JOINT Spine2
				{
					OFFSET 12.343202 0.000008 0.000008
					CHANNELS 3 Zrotation Yrotation Xrotation
					JOINT Neck
					{
						OFFSET 25.832897 -0.000015 -0.000004
						CHANNELS 3 Zrotation Yrotation Xrotation
						JOINT Head
						{
							OFFSET 11.766609 0.000013 -0.000006
							CHANNELS 3 Zrotation Yrotation Xrotation
							End Site
							{
								OFFSET 0.000000 0.000000 0.000000
							}
						}
					}
					JOINT LeftShoulder
					{
						OFFSET 19.745911 -1.480373 6.000098
						CHANNELS 3 Zrotation Yrotation Xrotation
						JOINT LeftArm
						{
							OFFSET 11.284123 -0.000007 -0.000032
							CHANNELS 3 Zrotation Yrotation Xrotation
							JOINT LeftForeArm
							{
								OFFSET 33.000050 0.000005 0.000031
								CHANNELS 3 Zrotation Yrotation Xrotation
								JOINT LeftHand
								{
									OFFSET 25.200008 0.000017 0.000013
									CHANNELS 3 Zrotation Yrotation Xrotation
									End Site
									{
										OFFSET 0.000000 0.000000 0.000000
									}
								}
							}
						}
					}
					JOINT RightShoulder
					{
						OFFSET 19.746092 -1.480379 -6.000077
						CHANNELS 3 Zrotation Yrotation Xrotation
						JOINT RightArm
						{
							OFFSET 11.284136 -0.000017 -0.000017
							CHANNELS 3 Zrotation Yrotation Xrotation
							JOINT RightForeArm
							{
								OFFSET 33.000099 0.000019 0.000015
								CHANNELS 3 Zrotation Yrotation Xrotation
								JOINT RightHand
								{
									OFFSET 25.199780 0.000140 0.000408
									CHANNELS 3 Zrotation Yrotation Xrotation
									End Site
									{
										OFFSET 0.000000 0.000000 0.000000
									}
								}
							}
						}
					}
				}
			}
		}
	}
}
MOTION
Frames: 12
Frame Time: 0.033333
153.100927 0.000000 75.536933 0.000000 97.534696 0.000000 -1.428589 91.574677 0.705540 91.228424 1.837186 -173.027716 157.868621 -6.962208 -179.331835 -43.233909 -3.206694 -1.389023 71.988404 -0.028795 -3.513664 21.454558 0.003121 0.000018 174.935051 1.366701 -172.606571 -17.439203 2.805730 5.103286 76.246174 -3.158663 1.850868 21.454551 -0.003086 -0.000001 8.164354 0.647192 0.069345 6.317255 1.289696 0.173765 5.999062 1.290589 0.165968 4.598310 3.290164 11.982065 -8.883462 -11.981253 16.131293 -166.629486 -70.596070 -15.138401 -11.490038 42.320624 21.432785 -29.564744 -17.398650 1.400775 4.981368 10.841531 17.008359 -173.599967 78.726488 8.052094 -21.896325 -36.768039 -3.374338 -23.652971 13.118463 -1.001702 13.146078 6.741827 -3.337971 
152.838440 0.000000 75.155564 0.000000 100.843738 0.000000 -1.559154 91.504883 0.701671 91.322995 1.989651 -175.792624 157.472661 -7.502398 179.232784 -44.471918 -3.454612 -1.375468 72.315468 0.109135 -3.097689 21.454555 0.003116 0.000021 175.317979 1.466395 -171.969451 -17.720972 2.902936 4.985221 76.677616 -3.069723 1.888418 21.454551 -0.003092 0.000000 8.130278 0.654402 0.331568 6.252058 1.290038 0.697895 5.933893 1.294090 0.690094 4.138493 2.363142 12.565749 -8.538924 -12.050819 16.577651 -165.263011 -69.190827 -16.555936 -11.081513 46.849412 25.082183 -27.626876 -16.180737 1.287025 4.806432 11.515438 19.080649 179.048300 78.379084 0.565311 -26.357271 -40.746508 -8.642502 -23.363138 11.370078 -0.885271 13.183777 0.568255 -11.235061 
152.512618 0.000000 74.759862 0.000000 104.192188 0.000000 -1.583187 91.410027 0.741657 91.360600 2.265547 -178.440455 157.873389 -8.045507 176.718741 -44.381825 -3.460285 -3.602359 74.577388 1.633823 -3.577357 21.454558 0.003111 0.000017 175.727749 1.393092 -171.981199 -18.034616 3.086044 5.337517 77.222112 -3.263436 2.111641 21.454551 -0.003091 0.000000 8.032752 0.674739 0.656664 6.060786 1.314370 1.347687 5.742702 1.322333 1.339718 3.515271 1.562100 13.004591 -8.057020 -11.842359 16.788742 -163.098497 -68.224943 -18.801349 -8.698225 51.305437 29.041363 -26.250691 -15.727687 1.234345 5.060658 11.993418 18.984723 173.895360 78.172833 -4.684091 -31.204132 -44.201241 -16.067527 -25.595786 11.096692 -0.901074 9.202005 -3.803353 -22.761896 
152.121010 0.000000 74.350964 0.000000 107.568600 0.000000 -1.499079 91.352654 0.790998 91.303496 2.425381 179.324103 158.629641 -7.972002 172.808185 -43.122785 -2.508763 -7.340105 76.311894 4.103894 -4.461206 21.454557 0.003103 0.000020 176.238183 1.355296 -172.531876 -18.236830 3.277558 6.256554 77.817520 -3.776950 2.639422 21.454551 -0.003089 0.000000 7.863116 0.658268 1.039787 5.725406 1.264589 2.110820 5.407441 1.277185 2.103152 2.928364 1.444205 12.981342 -7.711167 -11.879601 16.708029 -160.997804 -67.874404 -20.979056 -4.328882 55.045881 33.388581 -25.967835 -15.385478 1.207842 5.503732 11.796827 17.112481 173.107921 77.934480 -5.492093 -36.762913 -46.758912 -24.464336 -30.078531 12.296860 -1.057069 5.394030 -4.660090 -34.426349 
151.661168 0.000000 73.930005 0.000000 110.960973 0.000000 -1.372802 91.352753 0.821292 91.193274 2.427217 177.930087 159.695369 -7.245507 169.315772 -40.577368 -1.814611 -11.708080 77.269677 7.119761 -4.887498 21.454562 0.003109 0.000017 176.981990 1.314298 -173.132960 -18.115438 3.250243 7.726977 78.306452 -4.568389 3.594750 21.454555 -0.003088 0.000000 7.654463 0.623185 1.281041 5.309807 1.187353 2.589263 4.991976 1.202824 2.582058 2.691751 1.680813 12.737023 -7.729746 -12.093565 16.553908 -158.613918 -67.672490 -23.449213 1.267904 56.995340 39.717075 -26.407130 -14.773586 1.176187 5.774668 11.615649 16.389360 172.093651 77.695021 -6.531619 -41.780462 -48.435986 -29.277319 -37.088357 13.380763 -1.279044 2.802309 -1.730512 -39.565264 
151.130642 0.000000 73.498123 0.000000 114.357049 0.000000 -1.167001 91.308693 0.872739 91.119874 2.546580 177.086628 161.116212 -6.455704 165.988131 -37.218073 -1.489152 -15.451261 78.124585 9.736881 -5.061200 21.454557 0.003108 0.000017 177.982067 1.130605 -172.935308 -17.899426 3.024718 9.055858 78.760701 -5.213838 4.767770 21.454557 -0.003092 -0.000001 7.463205 0.621068 1.417709 4.928609 1.181690 2.860522 4.610849 1.198804 2.853339 2.232934 1.823953 12.360791 -7.409924 -11.911313 16.099811 -156.766092 -67.720021 -25.360428 7.284121 57.621136 47.938311 -27.065497 -14.686264 1.181838 5.480206 10.934482 14.851729 171.960818 77.682433 -6.667306 -46.416559 -49.700541 -29.442582 -45.279001 14.720142 -1.586230 1.524409 0.473653 -44.013954 
150.526985 0.000000 73.056453 0.000000 117.744626 0.000000 -0.902819 91.255928 0.915139 91.184177 2.605847 176.642902 162.822393 -5.410005 162.442430 -33.686517 -1.392049 -17.815744 79.513456 11.500889 -4.681057 21.454558 0.003109 0.000017 179.301126 1.001298 -172.321124 -17.565194 2.736559 10.358358 79.216233 -5.825051 6.063429 21.454550 -0.003086 0.000002 7.312582 0.606955 1.453731 4.627341 1.155838 2.930507 4.309629 1.173371 2.923480 2.049956 1.775115 11.962456 -7.408934 -11.281785 15.516788 -155.453316 -67.605902 -26.721022 12.134926 57.077743 54.964322 -27.391669 -14.744645 1.191259 5.240206 10.354270 14.873152 171.535352 77.831481 -7.095983 -50.838324 -50.205599 -26.617623 -53.000373 14.960252 -1.846709 -0.711672 2.653975 -41.850925 
149.847746 0.000000 72.606132 0.000000 121.111872 0.000000 -0.560086 91.206917 0.903520 91.288723 2.492202 176.715645 164.610701 -4.184998 159.475778 -30.785076 -1.513782 -18.098417 81.086114 11.977560 -3.365200 21.454555 0.003109 0.000017 -179.122640 1.034102 -171.299300 -17.082735 2.460914 11.736081 79.710404 -6.510357 7.323932 21.454551 -0.003095 -0.000001 7.159587 0.567011 1.400261 4.319855 1.081925 2.820630 4.002101 1.098800 2.814042 2.686565 1.911924 11.607563 -7.948940 -11.155453 15.211598 -155.496893 -67.638619 -26.675270 15.541829 55.917741 59.241052 -27.353506 -14.168740 1.153761 5.506379 10.026677 16.430223 171.792290 78.149597 -6.824915 -54.401425 -49.983505 -22.162208 -60.652025 14.092983 -2.061057 -0.434693 2.743320 -34.609661 
149.090476 0.000000 72.148295 0.000000 124.447602 0.000000 -0.222911 91.145111 0.790564 91.553363 2.121483 176.751493 166.357358 -2.655115 157.432705 -28.937398 -0.735664 -16.154311 82.747236 10.971300 -1.534259 21.454558 0.003110 0.000018 -177.834726 1.403696 -170.363387 -17.492676 2.113805 13.005288 80.214425 -7.135461 8.565130 21.454553 -0.003096 0.000000 7.063295 0.426967 1.346339 4.123402 0.806260 2.706939 3.805649 0.822437 2.702016 3.981868 1.815254 10.949408 -8.861101 -10.571768 14.476760 -155.678999 -67.848374 -26.482214 17.174917 55.055918 61.603634 -26.287784 -13.912586 1.119186 6.240811 10.163151 16.305796 172.484420 78.409574 -6.113126 -57.459185 -49.417873 -17.397508 -67.155943 13.066908 -2.242532 -0.475670 2.884939 -29.003732 
148.252727 0.000000 71.684078 0.000000 127.741520 0.000000 0.073802 91.037582 0.562413 91.920302 1.586022 176.559691 167.593062 -1.205197 159.788792 -28.439946 -1.608474 -15.680610 83.631910 10.784957 -0.790862 21.454560 0.003110 0.000017 -177.260020 2.107902 -168.616170 -19.452806 1.165625 13.420529 80.524064 -6.965159 10.654348 21.454553 -0.003095 -0.000001 7.029877 0.229384 1.315467 4.051690 0.413162 2.638083 3.733935 0.428944 2.635546 5.561024 2.061997 10.223189 -9.817991 -10.166189 13.760744 -155.647799 -67.994963 -26.511159 17.542292 54.487516 61.341369 -24.839364 -13.662249 1.079861 7.261663 10.796510 17.265583 173.370309 78.562079 -5.207779 -59.905212 -48.772045 -12.273288 -72.031537 11.956683 -2.364209 -1.136408 2.669971 -26.358600 
147.332049 0.000000 71.214619 0.000000 130.984407 0.000000 0.255690 90.870300 0.314275 92.271969 0.973606 176.235129 168.491341 0.413107 161.617193 -28.352616 -1.802499 -15.131987 84.193495 10.491670 -0.270798 21.454560 0.003107 0.000017 -177.387048 3.078906 -166.178052 -22.637412 -0.247187 13.264103 80.490467 -6.246272 13.268192 21.454555 -0.003096 0.000001 7.023758 0.024335 1.291543 4.034719 0.004188 2.583133 3.716965 0.019647 2.583053 7.326892 2.273297 9.759670 -10.306509 -9.975722 13.305150 -156.486123 -68.032680 -25.643561 17.352688 54.064253 58.973308 -23.495272 -13.402646 1.043058 7.725907 9.837405 17.997938 173.391469 78.804209 -5.179607 -61.521686 -48.254791 -7.365390 -75.214132 11.083971 -2.436743 -2.352551 1.966144 -26.902061 
146.325993 0.000000 70.741052 0.000000 134.168244 0.000000 0.354818 90.743591 -0.000087 92.630139 0.268416 175.708978 169.622038 2.192995 163.063294 -27.783654 -1.892321 -14.585977 84.487439 10.228880 0.399631 21.454558 0.003108 0.000017 -178.552729 4.425800 -164.975720 -27.536213 -1.612212 13.559899 79.038614 -5.630962 16.007687 21.454555 -0.003100 0.000000 7.041790 -0.181049 1.273952 4.066243 -0.406187 2.540849 3.748477 -0.390985 2.543243 9.160782 2.534312 9.697808 -10.738191 -10.064513 13.335233 -157.895013 -68.240604 -24.182640 17.012437 54.176927 56.413077 -23.062093 -13.653189 1.052814 8.930880 8.244612 18.629198 173.549615 79.177616 -5.008642 -62.409761 -47.978346 -3.464966 -77.156638 10.761748 -2.496794 -2.082632 1.754741 -28.935130 
